<svg viewBox="0 0 48 48" fill="none" xmlns="http://www.w3.org/2000/svg"><g id="SVGRepo_bgCarrier" stroke-width="0"></g><g id="SVGRepo_tracerCarrier" stroke-linecap="round" stroke-linejoin="round"></g><g id="SVGRepo_iconCarrier"> <rect width="48" height="48" fill="black" fill-opacity="0.01"></rect> <rect x="4" y="4" width="40" height="16" rx="8" fill="#ffffff" stroke="#000000" stroke-width="4" stroke-linejoin="round"></rect> <rect x="4" y="28" width="40" height="16" rx="8" fill="white" stroke="#000000" stroke-width="4" stroke-linejoin="round"></rect> <path d="M36 14C37.1046 14 38 13.1046 38 12C38 10.8954 37.1046 10 36 10C34.8954 10 34 10.8954 34 12C34 13.1046 34.8954 14 36 14Z" fill="black" stroke="black" stroke-width="4" stroke-linejoin="round"></path> <path d="M12 38C13.1046 38 14 37.1046 14 36C14 34.8954 13.1046 34 12 34C10.8954 34 10 34.8954 10 36C10 37.1046 10.8954 38 12 38Z" fill="#43CCF8" stroke="black" stroke-width="4" stroke-linejoin="round"></path> </g></svg>